#!OML:ASF E:/inclinewalkrobotboard/Project1/Captureday1/Session1/subject1.ASF
:FULLY-SPECIFIED
:DEGREES
226
root 0 0 0 -1.3006333094063862 21.173558408589027 8.568773026462344
lowerback -4.080116091190417 -6.060759621041964 -6.366440507269832
upperback -8.421054060695571 -7.507622197723711 6.973507560346333
thorax -6.092589701341729 -2.6189688204217214 10.964279858024831
lowerneck -5.594168425726982 -8.856171602492815 -7.653376640093973
upperneck 32.24319442064049 -11.447181298435376 1.905521817205295
head 12.14493818229356 -5.823720029806512 0.37796373212169576
rclavicle -3.788750541353009E-15 -2.4303072490535384E-15
rhumerus -18.95576077660484 -26.999285051203564 -16.475736032850875
rradius 62.44800637391354
rwrist -12.24447127849026
rhand -26.634261377956147 32.394930537551616
rfingers 7.1250199999999655
rthumb -0.04978824641458601 1.6181028398107458
lclavicle -2.805013416328186E-17 -3.9133423777546646E-15
lhumerus 23.103103598234277 3.544028786716857 41.2989462653357
lradius 63.771305676905904
lwrist -7.498999752128153
lhand -13.686273094809668 7.46426839612381
lfingers 7.125019999999966
lthumb 12.267494593372355 35.56200652213943
rfemur 141.74951143946348 -157.5583255263448 -122.98041496191772
rtibia 28.628824954371826
rfoot -13.544557843324847 -50.64859858237756
rtoes 4.922638025433955
lfemur -82.3759176475645 24.102837451704836 -57.05494944083266
ltibia 68.26855596858202
lfoot 12.266302898605783 32.137490676133524
ltoes 0.3435556022994106
227
root 0 0 0 -1.3445070373487873 21.29982441948358 8.590328356721026
lowerback -4.068511858058412 -6.0626980742473044 -6.371570413839541
upperback -8.414809125194392 -7.508852724341088 6.9773860265530505
thorax -6.092306913574726 -2.618544014879828 10.970945839548191
lowerneck -5.590170399057344 -8.865451650822017 -7.661322427782324
upperneck 32.23511315416061 -11.453854462562878 1.8922552718012495
head 12.140703491184379 -5.828822495217143 0.37365589938007837
rclavicle -3.7975674816990434E-15 -2.4545771873914037E-15
rhumerus -18.96647790959426 -26.97454637148536 -16.53322954096503
rradius 62.41077173055433
rwrist -12.222515952462985
rhand -26.628643993957336 32.38558767572867
rfingers 7.1250199999999655
rthumb -0.044082571169166584 1.6091501649436424
lclavicle -5.905658447495262E-17 -3.914142625356493E-15
lhumerus 23.31219643764493 3.729950051461006 41.16852882870481
lradius 63.710310771414505
lwrist -7.624726126169598
lhand -13.785456319826382 7.447138600711522
lfingers 7.125019999999967
lthumb 12.17386139300156 35.57164318717219
rfemur 140.7975037592672 -156.5947163829969 -122.06439168925901
rtibia 28.591476616949727
rfoot -13.589936681681172 -50.43930813379593
rtoes 4.8305183875289295
lfemur -82.24827200588648 24.064346842469867 -57.08968115128963
ltibia 68.26232407982121
lfoot 12.32784339239483 32.09330535720136
ltoes 0.22773147308161867
228
root 0 0 0 -1.3687634975378842 21.37036625002521 8.599505310161879
lowerback -4.060901326750409 -6.063554046859986 -6.37302742708025
upperback -8.410422914909915 -7.509271147546768 6.97956465003862
thorax -6.09166033133475 -2.6184027940688166 10.973914275457563
lowerneck -5.588929811638931 -8.87087025943587 -7.666046556879768
upperneck 32.230680789118864 -11.457988123590452 1.8850328015596274
head 12.138623930656763 -5.831835610605522 0.37132450290677255
rclavicle -3.805419282740822E-15 -2.4718074360911306E-15
rhumerus -18.972538515475776 -26.957854278451794 -16.57557583280812
rradius 62.38553239167862
rwrist -12.209260147780412
rhand -26.62468993601016 32.37914389807043
rfingers 7.1250199999999655
rthumb -0.04006125503376978 1.6030047900754347
lclavicle -7.822903587763818E-17 -3.91729627074458E-15
lhumerus 23.383022406600077 3.834763993072584 41.154271569504544
lradius 63.67778090290307
lwrist -7.6735396999492895
lhand -13.874643364824827 7.436092503140955
lfingers 7.125019999999967
lthumb 12.089288686840865 35.58068326411856
rfemur 140.2081505656342 -156.00164939544047 -121.49642666161618
rtibia 28.555409948402172
rfoot -13.630513518389748 -50.292186812160104
rtoes 4.771712935056652
lfemur -82.16878136079214 24.04111463909495 -57.100494794030304
ltibia 68.2648300158259
lfoot 12.354739687796968 32.06043459684486
ltoes 0.15923804201864122
229
root 0 0 0 -1.3838476373170572 21.4125797946305 8.603043111372534
lowerback -4.054707133233493 -6.063917584437117 -6.372787143146307
upperback -8.40688271932656 -7.50935776853537 6.9808445860691375
thorax -6.091117757887484 -2.6183985104630203 10.975048802377398
lowerneck -5.589040316379253 -8.874144289689493 -7.668971906285424
upperneck 32.22764012521505 -11.46050977131983 1.880748761470551
head 12.137428599043345 -5.8336589410329305 0.36995069719896057
rclavicle -3.8069621164628726E-15 -2.479067179788516E-15
rhumerus -18.977018309826256 -26.947899227914913 -16.60383886350025
rradius 62.37059663011691
rwrist -12.202227833408145
rhand -26.621993364440097 32.3755270846365
rfingers 7.1250199999999655
rthumb -0.03734692334243661 1.5996812780882266
lclavicle -7.378764686432691E-17 -3.914649841312098E-15
lhumerus 23.348155683203082 3.875428446382325 41.22978182828629
lradius 63.66637768996341
lwrist -7.662848934899376
lhand -13.956223087499183 7.4292462463809485
lfingers 7.125019999999967
lthumb 12.01161021497456 35.58867275206714
rfemur 139.82129498624073 -155.61532236343254 -121.12384599545587
rtibia 28.529044046133947
rfoot -13.665131261279003 -50.1838389510465
rtoes 4.731911160105096
lfemur -82.12077642210177 24.027753637707356 -57.10198594306728
ltibia 68.27018569486299
lfoot 12.376498450508866 32.03588638493776
ltoes 0.11994906389975135
